<svg width="24" height="22" viewBox="0 0 24 22" fill="none" xmlns="http://www.w3.org/2000/svg">
<path d="M12 0.6485C5.37 0.6485 0 6.0215 0 12.6485C0 17.9515 3.438 22.4485 8.205 24.0335C8.805 24.1465 9.025 23.7755 9.025 23.4565C9.025 23.1715 9.015 22.4165 9.01 21.4165C5.672 22.1405 4.968 19.8065 4.968 19.8065C4.422 18.4215 3.633 18.0515 3.633 18.0515C2.546 17.3075 3.717 17.3225 3.717 17.3225C4.922 17.4065 5.555 18.5585 5.555 18.5585C6.625 20.3935 8.364 19.8635 9.05 19.5565C9.158 18.7805 9.467 18.2515 9.81 17.9515C7.145 17.6515 4.344 16.6195 4.344 12.0215C4.344 10.7115 4.809 9.6415 5.579 8.8015C5.444 8.4985 5.039 7.2785 5.684 5.6255C5.684 5.6255 6.689 5.3035 8.984 6.8555C9.944 6.5885 10.964 6.4565 11.984 6.4505C13.004 6.4565 14.024 6.5885 14.984 6.8555C17.264 5.3035 18.269 5.6255 18.269 5.6255C18.914 7.2785 18.509 8.4985 18.389 8.8015C19.154 9.6415 19.619 10.7115 19.619 12.0215C19.619 16.6315 16.814 17.6465 14.144 17.9415C14.564 18.3015 14.954 19.0375 14.954 20.1615C14.954 21.7675 14.939 23.0575 14.939 23.4475C14.939 23.7625 15.149 24.1375 15.764 24.0175C20.565 22.4435 24 17.9435 24 12.6485C24 6.0215 18.627 0.6485 12 0.6485Z" fill="#D14D72"/>
</svg>
